<?xml version="1.0" standalone="no"?>
<!DOCTYPE svg PUBLIC "-//W3C//DTD SVG 20010904//EN"
 "http://www.w3.org/TR/2001/REC-SVG-20010904/DTD/svg10.dtd">
<svg version="1.0" xmlns="http://www.w3.org/2000/svg"
 width="256.000000pt" height="256.000000pt" viewBox="0 0 256.000000 256.000000"
 preserveAspectRatio="xMidYMid meet">
<metadata>
Created by potrace 1.14, written by Peter Selinger 2001-2017
</metadata>
<g transform="translate(0.000000,256.000000) scale(0.100000,-0.100000)"
fill="#000000" stroke="none">
<path d="M1165 2454 c-163 -23 -289 -61 -416 -124 -304 -153 -522 -426 -611
-765 -29 -111 -31 -132 -31 -285 0 -152 2 -174 31 -285 22 -83 50 -157 91
-240 58 -116 173 -279 192 -273 5 2 70 82 145 178 l135 175 -61 3 c-34 2 -60
7 -58 11 2 5 102 145 223 310 121 166 222 306 223 311 2 6 -27 10 -72 10 -42
0 -76 2 -76 5 0 2 94 147 208 320 l209 317 202 -308 c112 -168 205 -313 208
-320 3 -10 -11 -14 -57 -16 l-61 -3 231 -313 c126 -172 230 -315 230 -319 0
-3 -43 -3 -95 0 -52 3 -95 2 -95 -2 0 -13 270 -361 281 -361 4 0 35 35 69 78
87 110 173 289 212 437 29 111 31 133 31 285 0 153 -2 174 -31 285 -118 450
-457 773 -917 871 -70 15 -283 26 -340 18z m155 -117 c15 -41 16 -42 70 -47
l55 -5 -42 -29 c-24 -16 -43 -32 -43 -36 0 -4 7 -24 16 -45 8 -20 13 -40 10
-43 -3 -3 -23 7 -44 22 -21 14 -41 26 -46 26 -4 0 -24 -11 -44 -25 -20 -14
-40 -25 -44 -25 -4 0 0 21 9 47 18 51 19 49 -48 95 -24 17 -24 17 33 17 l56 1
17 51 c9 28 20 47 23 44 4 -3 14 -25 22 -48z m574 -200 c13 -21 -15 -53 -38
-44 -26 10 -31 38 -11 54 22 16 35 13 49 -10z m-134 -112 c0 -8 -4 -15 -9 -15
-13 0 -22 16 -14 24 11 11 23 6 23 -9z m220 -101 c0 -14 -21 -19 -33 -7 -9 9
13 34 24 27 5 -3 9 -12 9 -20z m128 -78 c4 -21 -14 -37 -35 -29 -14 5 -18 35
-6 47 12 12 38 1 41 -18z m-493 -15 c7 -12 -12 -24 -25 -16 -11 7 -4 25 10 25
5 0 11 -4 15 -9z m143 -65 c4 -21 -14 -37 -35 -29 -14 5 -18 35 -6 47 12 12
38 1 41 -18z m214 -81 c0 -5 -5 -11 -11 -13 -6 -2 -11 4 -11 13 0 9 5 15 11
13 6 -2 11 -8 11 -13z m228 -40 c0 -8 -4 -15 -9 -15 -13 0 -22 16 -14 24 11
11 23 6 23 -9z m-300 -50 c0 -8 -7 -15 -15 -15 -8 0 -15 7 -15 15 0 8 7 15 15
15 8 0 15 -7 15 -15z m188 -82 c5 -17 -26 -29 -40 -15 -6 6 -7 15 -3 22 9 14
37 9 43 -7z m-198 -133 c0 -11 -6 -20 -14 -20 -18 0 -29 16 -21 30 11 18 35
11 35 -10z m430 5 c13 -16 6 -35 -15 -35 -18 0 -28 17 -21 35 7 19 20 19 36 0z
m-271 -71 c-9 -11 -15 -12 -25 -3 -11 9 -12 15 -3 25 9 11 15 12 25 3 11 -9
12 -15 3 -25z m-1369 6 c0 -21 -24 -28 -35 -10 -8 14 3 30 21 30 8 0 14 -9 14
-20z m148 -21 c-2 -6 -8 -10 -13 -10 -5 0 -11 4 -13 10 -2 6 4 11 13 11 9 0
15 -5 13 -11z m1082 -50 c0 -5 -7 -9 -15 -9 -15 0 -20 12 -9 23 8 8 24 -1 24
-14z m-1482 -6 c-5 -26 -38 -29 -38 -4 0 15 6 21 21 21 14 0 19 -5 17 -17z
m167 -64 c0 -7 -8 -15 -17 -17 -18 -3 -25 18 -11 32 10 10 28 1 28 -15z m1467
-54 c0 -5 -5 -11 -11 -13 -6 -2 -11 4 -11 13 0 9 5 15 11 13 6 -2 11 -8 11
-13z m-1650 -10 c0 -5 -5 -11 -11 -13 -6 -2 -11 4 -11 13 0 9 5 15 11 13 6 -2
11 -8 11 -13z m278 -50 c0 -8 -4 -15 -9 -15 -13 0 -22 16 -14 24 11 11 23 6
23 -9z m-462 -13 c2 -7 -3 -12 -12 -12 -9 0 -16 7 -16 16 0 17 22 14 28 -4z
m317 -12 c0 -8 -8 -16 -17 -18 -13 -2 -18 3 -18 18 0 15 5 20 18 18 9 -2 17
-10 17 -18z m-205 -111 c0 -5 -7 -9 -15 -9 -15 0 -20 12 -9 23 8 8 24 -1 24
-14z m130 -24 c0 -8 -4 -15 -9 -15 -13 0 -22 16 -14 24 11 11 23 6 23 -9z
m-78 -150 c0 -5 -5 -11 -11 -13 -6 -2 -11 4 -11 13 0 9 5 15 11 13 6 -2 11 -8
11 -13z m178 -70 c0 -8 -7 -15 -15 -15 -8 0 -15 7 -15 15 0 8 7 15 15 15 8 0
15 -7 15 -15z"/>
<path d="M780 215 c130 -70 384 -122 555 -112 154 9 341 56 445 112 l45 24
-545 0 -545 0 45 -24z"/>
</g>
</svg>
